General                          : ChattChitto RG - Movies

Complete name                    : Shutter Island 2010 BRRip.mp4
Format                           : MPEG-4
Format profile                   : Base Media
Codec ID                         : isom
File size                        : 2.56 GiB
Duration                         : 2h 18mn
Overall bit rate                 : 2 658 Kbps
Encoded date                     : UTC 2010-05-17 14:02:21

Video
==========
ID                               : 1
Format                           : AVC
Format/Info                      : Advanced Video Codec
Format profile                   : High@L4.0
Format settings, CABAC           : Yes
Format settings, ReFrames        : 4 frames
Codec ID                         : avc1
Codec ID/Info                    : Advanced Video Coding
Duration                         : 2h 18mn
Bit rate mode                    : Variable
Bit rate                         : 2 300 Kbps
Maximum bit rate                 : 16.9 Mbps
Width                            : 1 280 pixels
Height                           : 544 pixels
Display aspect ratio             : 2.35:1
Frame rate mode                  : Constant
Frame rate                       : 23.976 fps
Resolution                       : 8 bits
Colorimetry                      : 4:2:0
Scan type                        : Progressive
Bits/(Pixel*Frame)               : 0.138
Stream size                      : 2.22 GiB (86%)
Writing library                  : x264 core 84 r1400M 20fa784
Encoded date                     : UTC 2010-05-17 13:56:38

Audio
==========
ID                               : 2
Format                           : AAC
Format/Info                      : Advanced Audio Codec
Format version                   : Version 4
Format profile                   : LC
Format settings, SBR             : No
Codec ID                         : 40
Duration                         : 2h 18mn
Bit rate mode                    : Variable
Bit rate                         : 352.8 Kbps
Maximum bit rate                 : 450 Kbps
Channel(s)                       : 6 channels
Channel positions                : Front: L C R, Side: L R, LFE
Sampling rate                    : 48.0 KHz
Stream size                      : 351 MiB (13%)
Encoded date                     : UTC 2010-05-17 14:03:41

Subtitles                        : English | Dutch |French | Portuguese



----------------------------------------------------
IMDB Link: http://www.imdb.com/title/tt1130884/
----------------------------------------------------



Screen-Shots Comparison:
========================= 
http://comparescreenshots.slicx.com/comparison/57141



Screen Shots:
============== 
http://img23.imageshack.us/img23/5755/28004226.jpg 
http://img15.imageshack.us/img15/768/47261088.jpg 
http://img339.imageshack.us/img339/8346/69871150.jpg 
http://img293.imageshack.us/img293/6422/35040770.jpg 
http://img204.imageshack.us/img204/4968/55867407.jpg



Plot:
======
It's 1954, and up-and-coming U.S. marshal Teddy Daniels is assigned to investigate the disappearance of a patient from Boston's Shutter Island Ashecliffe Hospital. He's been pushing for an assignment on the island for personal reasons, but before long he wonders whether he hasn't been brought there as part of a twisted plot by hospital doctors whose radical treatments range from unethical to illegal to downright sinister. Teddy's shrewd investigating skills soon provide a promising lead, but the hospital refuses him access to records he suspects would break the case wide open. As a hurricane cuts off communication with the mainland, more dangerous criminals "escape" in the confusion, and the puzzling, improbable clues multiply, Teddy begins to doubt everything - his memory, his partner, even his own sanity. 




Release Info:
==============
original name .... : Shutter Island 2010 BRRip.mp4
ripper.............: WiKi
encoder............: Recalled2Life (R2L)
video codec........: H264/.MP4
video bitrate......: 2300 Kbps
audio codec........: AAC-LC
aspect ratio.......: 2.35:1
resolution.........: 1280 x 544
genre..............: Drama | Mystery | Thriller
runtime............: 2h 18mn
language...........: English
rating.............: R
subtitles..........: English | Dutch |French | Portuguese 
sample.............: Yes [5.73 MB]
2ch Audio..........: 2ch Audio for XBox Viewers  
Compatibility .....: XBox 360 | PS3 | WD Live



Source:
========
Shutter Island 2010 720p BluRay x264 DTS-WiKi


Notes:
=======
ChattChitto RG Encourages Burning this Film with ConvertXtoDVD.
XBox 360 | PS3 | WD Live - Compatible
Enhanced and Filtered for your viewing pleasure ;)